<svg xmlns="http://www.w3.org/2000/svg" xmlns:xlink="http://www.w3.org/1999/xlink" width="96" zoomAndPan="magnify" viewBox="0 0 72 72" height="96" preserveAspectRatio="xMidYMid meet" version="1.0"><defs><clipPath id="3282cfdeb9"><path d="M 20.523438 35.242188 L 51.402344 35.242188 L 51.402344 40.3125 L 20.523438 40.3125 Z M 20.523438 35.242188 " clip-rule="nonzero"/></clipPath><clipPath id="311d9fdc02"><path d="M 24.394531 19.808594 L 47.519531 19.808594 L 47.519531 34.265625 L 24.394531 34.265625 Z M 24.394531 19.808594 " clip-rule="nonzero"/></clipPath><clipPath id="dcb3dee256"><path d="M 31.703125 21.988281 L 40.246094 21.988281 L 40.246094 30.117188 L 31.703125 30.117188 Z M 31.703125 21.988281 " clip-rule="nonzero"/></clipPath><clipPath id="b5f3156428"><path d="M 35.964844 21.988281 L 36.972656 25.09375 L 40.230469 25.09375 L 37.597656 27.011719 L 38.601562 30.117188 L 35.964844 28.195312 L 33.332031 30.117188 L 34.335938 27.011719 L 31.703125 25.09375 L 34.960938 25.09375 Z M 35.964844 21.988281 " clip-rule="nonzero"/></clipPath></defs><g clip-path="url(#3282cfdeb9)"><path fill="#000000" d="M 40.414062 39.023438 L 31.503906 39.023438 C 31.476562 39.023438 31.453125 39.011719 31.4375 38.984375 C 31.421875 38.957031 31.417969 38.933594 31.433594 38.90625 L 32.117188 37.589844 C 32.132812 37.5625 32.160156 37.546875 32.191406 37.546875 L 39.730469 37.546875 C 39.761719 37.546875 39.789062 37.566406 39.800781 37.589844 L 40.488281 38.90625 C 40.503906 38.933594 40.5 38.957031 40.484375 38.984375 C 40.46875 39.011719 40.445312 39.023438 40.414062 39.023438 Z M 51.203125 39.171875 L 47.511719 35.5 C 47.382812 35.371094 47.222656 35.304688 47.039062 35.304688 L 24.882812 35.304688 C 24.699219 35.304688 24.539062 35.371094 24.40625 35.5 L 20.71875 39.171875 C 20.503906 39.382812 20.457031 39.628906 20.570312 39.902344 C 20.6875 40.179688 20.894531 40.316406 21.195312 40.3125 L 50.730469 40.3125 C 50.914062 40.316406 51.070312 40.25 51.203125 40.121094 C 51.335938 39.988281 51.398438 39.832031 51.402344 39.644531 C 51.402344 39.46875 51.328125 39.300781 51.203125 39.171875 " fill-opacity="1" fill-rule="nonzero"/></g><g clip-path="url(#311d9fdc02)"><path fill="#000000" d="M 46.210938 19.8125 L 25.707031 19.8125 C 25.117188 19.8125 24.628906 20.296875 24.628906 20.886719 L 24.628906 33.003906 C 24.628906 33.59375 25.117188 34.078125 25.707031 34.078125 L 46.210938 34.078125 C 46.804688 34.078125 47.289062 33.59375 47.289062 33.003906 L 47.289062 20.886719 C 47.289062 20.296875 46.804688 19.816406 46.210938 19.816406 Z M 46.042969 21.058594 L 46.042969 32.835938 L 25.878906 32.835938 L 25.878906 21.058594 L 46.042969 21.058594 " fill-opacity="1" fill-rule="nonzero"/></g><g clip-path="url(#dcb3dee256)"><g clip-path="url(#b5f3156428)"><path fill="#1e47ff" d="M 31.703125 21.988281 L 40.246094 21.988281 L 40.246094 30.117188 L 31.703125 30.117188 Z M 31.703125 21.988281 " fill-opacity="1" fill-rule="nonzero"/></g></g><path fill="#000000" d="M 4.308594 44.078125 L 4.308594 42.761719 L 8.9375 42.761719 L 8.9375 44.078125 L 7.375 44.078125 L 7.375 49.34375 L 5.871094 49.34375 L 5.871094 44.078125 Z M 4.308594 44.078125 " fill-opacity="1" fill-rule="nonzero"/><path fill="#000000" d="M 13.242188 42.761719 L 13.242188 44.078125 L 10.976562 44.078125 L 10.976562 45.386719 L 13.152344 45.386719 L 13.152344 46.703125 L 10.976562 46.703125 L 10.976562 48.027344 L 13.242188 48.027344 L 13.242188 49.34375 L 9.480469 49.34375 L 9.480469 42.761719 Z M 13.242188 42.761719 " fill-opacity="1" fill-rule="nonzero"/><path fill="#000000" d="M 20.265625 49.34375 L 18.328125 49.34375 L 16.773438 47.101562 L 15.214844 49.34375 L 13.351562 49.34375 L 15.84375 45.800781 L 13.773438 42.761719 L 15.558594 42.761719 L 16.773438 44.554688 L 17.984375 42.761719 L 19.851562 42.761719 L 17.699219 45.800781 Z M 20.265625 49.34375 " fill-opacity="1" fill-rule="nonzero"/><path fill="#000000" d="M 23.8125 42.761719 L 26.472656 49.34375 L 24.863281 49.34375 L 24.371094 48.027344 L 21.871094 48.027344 L 21.382812 49.34375 L 19.769531 49.34375 L 22.425781 42.761719 Z M 23.863281 46.707031 L 23.128906 44.796875 L 23.113281 44.796875 L 22.375 46.707031 Z M 23.863281 46.707031 " fill-opacity="1" fill-rule="nonzero"/><path fill="#000000" d="M 28.226562 45.257812 L 28.226562 49.34375 L 26.726562 49.34375 L 26.726562 42.761719 L 28.226562 42.761719 L 30.84375 46.84375 L 30.859375 46.84375 L 30.859375 42.761719 L 32.359375 42.761719 L 32.359375 49.34375 L 30.859375 49.34375 L 28.242188 45.257812 Z M 28.226562 45.257812 " fill-opacity="1" fill-rule="nonzero"/><path fill="#000000" d="M 35.496094 42.761719 L 37.398438 42.761719 C 38.316406 42.761719 39.097656 43.074219 39.746094 43.699219 C 40.394531 44.324219 40.71875 45.109375 40.71875 46.046875 C 40.71875 46.992188 40.398438 47.78125 39.75 48.40625 C 39.105469 49.03125 38.320312 49.34375 37.398438 49.34375 L 35.496094 49.34375 Z M 36.992188 48.003906 L 37.226562 48.003906 C 37.773438 48.003906 38.21875 47.820312 38.566406 47.449219 C 38.914062 47.078125 39.09375 46.613281 39.097656 46.058594 C 39.097656 45.5 38.925781 45.03125 38.574219 44.660156 C 38.226562 44.289062 37.777344 44.101562 37.226562 44.101562 L 36.992188 44.101562 Z M 36.992188 48.003906 " fill-opacity="1" fill-rule="nonzero"/><path fill="#000000" d="M 41.382812 42.761719 L 42.878906 42.761719 L 42.878906 49.34375 L 41.382812 49.34375 Z M 41.382812 42.761719 " fill-opacity="1" fill-rule="nonzero"/><path fill="#000000" d="M 49.792969 45.65625 L 49.792969 47.082031 C 49.621094 47.867188 49.25 48.460938 48.671875 48.863281 C 48.101562 49.261719 47.460938 49.460938 46.753906 49.460938 C 45.863281 49.460938 45.105469 49.132812 44.480469 48.464844 C 43.855469 47.800781 43.542969 46.996094 43.542969 46.058594 C 43.542969 45.097656 43.847656 44.292969 44.460938 43.632812 C 45.070312 42.972656 45.835938 42.640625 46.75 42.640625 C 47.820312 42.640625 48.667969 43.015625 49.289062 43.765625 L 48.308594 44.84375 C 47.953125 44.28125 47.464844 44 46.839844 44 C 46.375 44 45.980469 44.199219 45.648438 44.601562 C 45.324219 45.003906 45.160156 45.488281 45.160156 46.058594 C 45.160156 46.613281 45.324219 47.09375 45.648438 47.488281 C 45.980469 47.886719 46.375 48.082031 46.839844 48.082031 C 47.222656 48.082031 47.554688 47.96875 47.839844 47.734375 C 48.125 47.503906 48.269531 47.195312 48.269531 46.816406 L 46.75 46.816406 L 46.75 45.65625 Z M 49.792969 45.65625 " fill-opacity="1" fill-rule="nonzero"/><path fill="#000000" d="M 50.453125 42.761719 L 51.949219 42.761719 L 51.949219 49.34375 L 50.453125 49.34375 Z M 50.453125 42.761719 " fill-opacity="1" fill-rule="nonzero"/><path fill="#000000" d="M 52.492188 44.078125 L 52.492188 42.761719 L 57.121094 42.761719 L 57.121094 44.078125 L 55.558594 44.078125 L 55.558594 49.34375 L 54.054688 49.34375 L 54.054688 44.078125 Z M 52.492188 44.078125 " fill-opacity="1" fill-rule="nonzero"/><path fill="#000000" d="M 61.003906 42.761719 L 63.664062 49.34375 L 62.054688 49.34375 L 61.5625 48.027344 L 59.0625 48.027344 L 58.570312 49.34375 L 56.960938 49.34375 L 59.617188 42.761719 Z M 61.050781 46.707031 L 60.320312 44.796875 L 60.304688 44.796875 L 59.566406 46.707031 Z M 61.050781 46.707031 " fill-opacity="1" fill-rule="nonzero"/><path fill="#000000" d="M 65.417969 42.761719 L 65.417969 48.027344 L 67.679688 48.027344 L 67.679688 49.34375 L 63.917969 49.34375 L 63.917969 42.761719 Z M 65.417969 42.761719 " fill-opacity="1" fill-rule="nonzero"/><path fill="#1e47ff" d="M 24.449219 52.027344 L 25.527344 52.027344 C 26.042969 52.027344 26.484375 52.203125 26.851562 52.558594 C 27.21875 52.910156 27.402344 53.355469 27.402344 53.886719 C 27.402344 54.421875 27.21875 54.867188 26.851562 55.222656 C 26.488281 55.574219 26.046875 55.75 25.527344 55.75 L 24.449219 55.75 Z M 25.296875 54.992188 L 25.429688 54.992188 C 25.738281 54.992188 25.992188 54.886719 26.1875 54.679688 C 26.382812 54.472656 26.484375 54.207031 26.488281 53.890625 C 26.488281 53.578125 26.386719 53.3125 26.191406 53.101562 C 25.996094 52.890625 25.742188 52.785156 25.429688 52.785156 L 25.296875 52.785156 Z M 25.296875 54.992188 " fill-opacity="1" fill-rule="nonzero"/><path fill="#1e47ff" d="M 30.359375 52.027344 L 30.359375 52.769531 L 29.078125 52.769531 L 29.078125 53.511719 L 30.304688 53.511719 L 30.304688 54.257812 L 29.078125 54.257812 L 29.078125 55.003906 L 30.359375 55.003906 L 30.359375 55.75 L 28.226562 55.75 L 28.226562 52.027344 Z M 30.359375 52.027344 " fill-opacity="1" fill-rule="nonzero"/><path fill="#1e47ff" d="M 32.667969 51.960938 C 32.871094 51.960938 33.066406 51.988281 33.253906 52.046875 C 33.449219 52.109375 33.59375 52.164062 33.6875 52.21875 L 33.824219 52.3125 L 33.480469 52.988281 C 33.441406 52.964844 33.40625 52.941406 33.367188 52.921875 C 33.320312 52.890625 33.230469 52.851562 33.097656 52.804688 C 32.964844 52.757812 32.839844 52.730469 32.726562 52.730469 C 32.585938 52.730469 32.476562 52.761719 32.402344 52.824219 C 32.324219 52.882812 32.285156 52.964844 32.285156 53.066406 C 32.285156 53.117188 32.304688 53.164062 32.339844 53.207031 C 32.375 53.25 32.4375 53.296875 32.523438 53.347656 C 32.613281 53.398438 32.6875 53.4375 32.753906 53.46875 L 33.0625 53.605469 C 33.296875 53.699219 33.5 53.835938 33.675781 54.019531 C 33.84375 54.195312 33.929688 54.394531 33.929688 54.617188 C 33.929688 54.832031 33.890625 55.019531 33.816406 55.175781 C 33.738281 55.335938 33.632812 55.460938 33.496094 55.550781 C 33.363281 55.644531 33.214844 55.710938 33.058594 55.75 C 32.894531 55.792969 32.71875 55.816406 32.527344 55.816406 C 32.367188 55.816406 32.207031 55.800781 32.046875 55.765625 C 31.890625 55.734375 31.761719 55.695312 31.65625 55.644531 C 31.550781 55.59375 31.460938 55.546875 31.375 55.5 C 31.289062 55.449219 31.226562 55.410156 31.1875 55.375 L 31.132812 55.328125 L 31.554688 54.613281 C 31.589844 54.640625 31.636719 54.679688 31.699219 54.726562 C 31.765625 54.773438 31.878906 54.835938 32.039062 54.917969 C 32.199219 54.992188 32.34375 55.03125 32.46875 55.03125 C 32.824219 55.03125 33.003906 54.910156 33.003906 54.664062 C 33.003906 54.613281 32.992188 54.566406 32.964844 54.523438 C 32.9375 54.480469 32.890625 54.4375 32.828125 54.394531 C 32.773438 54.355469 32.714844 54.320312 32.65625 54.292969 C 32.605469 54.265625 32.523438 54.226562 32.410156 54.171875 C 32.328125 54.132812 32.246094 54.09375 32.164062 54.054688 C 31.9375 53.941406 31.761719 53.800781 31.636719 53.632812 C 31.515625 53.46875 31.453125 53.289062 31.453125 53.097656 C 31.453125 52.761719 31.578125 52.488281 31.824219 52.277344 C 32.070312 52.066406 32.351562 51.960938 32.667969 51.960938 Z M 32.667969 51.960938 " fill-opacity="1" fill-rule="nonzero"/><path fill="#1e47ff" d="M 34.777344 52.027344 L 35.628906 52.027344 L 35.628906 55.75 L 34.777344 55.75 Z M 34.777344 52.027344 " fill-opacity="1" fill-rule="nonzero"/><path fill="#1e47ff" d="M 39.984375 53.664062 L 39.984375 54.472656 C 39.890625 54.914062 39.679688 55.25 39.355469 55.476562 C 39.027344 55.707031 38.664062 55.820312 38.265625 55.816406 C 37.765625 55.816406 37.335938 55.628906 36.984375 55.25 C 36.632812 54.875 36.453125 54.421875 36.453125 53.890625 C 36.453125 53.351562 36.625 52.894531 36.96875 52.519531 C 37.316406 52.148438 37.75 51.960938 38.265625 51.960938 C 38.871094 51.960938 39.351562 52.171875 39.703125 52.59375 L 39.148438 53.203125 C 38.945312 52.886719 38.667969 52.726562 38.3125 52.726562 C 38.050781 52.726562 37.828125 52.839844 37.644531 53.070312 C 37.460938 53.296875 37.367188 53.570312 37.367188 53.890625 C 37.367188 54.207031 37.460938 54.476562 37.644531 54.699219 C 37.828125 54.925781 38.050781 55.035156 38.3125 55.035156 C 38.53125 55.035156 38.71875 54.972656 38.882812 54.84375 C 39.042969 54.710938 39.125 54.535156 39.125 54.316406 L 38.265625 54.316406 L 38.265625 53.664062 Z M 39.984375 53.664062 " fill-opacity="1" fill-rule="nonzero"/><path fill="#1e47ff" d="M 41.660156 53.441406 L 41.660156 55.75 L 40.808594 55.75 L 40.808594 52.027344 L 41.660156 52.027344 L 43.140625 54.335938 L 43.148438 54.335938 L 43.148438 52.027344 L 43.996094 52.027344 L 43.996094 55.75 L 43.148438 55.75 L 41.667969 53.441406 Z M 41.660156 53.441406 " fill-opacity="1" fill-rule="nonzero"/><path fill="#1e47ff" d="M 46.359375 51.960938 C 46.558594 51.960938 46.753906 51.988281 46.945312 52.046875 C 47.140625 52.109375 47.285156 52.164062 47.378906 52.21875 L 47.515625 52.3125 L 47.171875 52.988281 C 47.132812 52.964844 47.097656 52.941406 47.058594 52.921875 C 47.007812 52.890625 46.921875 52.851562 46.789062 52.804688 C 46.65625 52.757812 46.53125 52.730469 46.417969 52.730469 C 46.277344 52.730469 46.167969 52.761719 46.09375 52.824219 C 46.015625 52.882812 45.976562 52.964844 45.976562 53.066406 C 45.976562 53.117188 45.996094 53.164062 46.03125 53.207031 C 46.066406 53.25 46.128906 53.296875 46.214844 53.347656 C 46.304688 53.398438 46.378906 53.4375 46.445312 53.46875 L 46.753906 53.605469 C 46.988281 53.699219 47.191406 53.835938 47.363281 54.019531 C 47.535156 54.195312 47.621094 54.394531 47.621094 54.617188 C 47.621094 54.832031 47.582031 55.019531 47.507812 55.175781 C 47.429688 55.335938 47.324219 55.460938 47.1875 55.550781 C 47.054688 55.644531 46.90625 55.710938 46.75 55.75 C 46.585938 55.792969 46.410156 55.816406 46.21875 55.816406 C 46.058594 55.816406 45.898438 55.800781 45.738281 55.765625 C 45.582031 55.734375 45.453125 55.695312 45.347656 55.644531 C 45.242188 55.59375 45.148438 55.546875 45.066406 55.5 C 44.980469 55.449219 44.917969 55.410156 44.878906 55.375 L 44.824219 55.328125 L 45.246094 54.613281 C 45.28125 54.640625 45.328125 54.679688 45.390625 54.726562 C 45.457031 54.773438 45.570312 54.835938 45.730469 54.917969 C 45.890625 54.992188 46.035156 55.03125 46.15625 55.03125 C 46.515625 55.03125 46.695312 54.910156 46.695312 54.664062 C 46.695312 54.613281 46.683594 54.566406 46.65625 54.523438 C 46.628906 54.480469 46.582031 54.4375 46.519531 54.394531 C 46.464844 54.355469 46.40625 54.320312 46.347656 54.292969 C 46.296875 54.265625 46.214844 54.226562 46.101562 54.171875 C 46.019531 54.132812 45.9375 54.09375 45.855469 54.054688 C 45.628906 53.941406 45.453125 53.800781 45.328125 53.632812 C 45.207031 53.46875 45.144531 53.289062 45.144531 53.097656 C 45.144531 52.761719 45.269531 52.488281 45.515625 52.277344 C 45.761719 52.066406 46.042969 51.960938 46.359375 51.960938 Z M 46.359375 51.960938 " fill-opacity="1" fill-rule="nonzero"/></svg>