<svg xmlns="http://www.w3.org/2000/svg" version="1.1" xmlns:xlink="http://www.w3.org/1999/xlink" width="1000" height="1000"><g clip-path="url(#SvgjsClipPath1256)"><rect width="1000" height="1000" fill="#ffffff"></rect><g transform="matrix(2,0,0,2,0,0)"><svg xmlns="http://www.w3.org/2000/svg" version="1.1" xmlns:xlink="http://www.w3.org/1999/xlink" width="500" height="500"><svg xmlns="http://www.w3.org/2000/svg" xmlns:xlink="http://www.w3.org/1999/xlink" width="500" zoomAndPan="magnify" viewBox="0 0 375 374.999991" height="500" preserveAspectRatio="xMidYMid meet" version="1.0"><defs><clipPath id="764149caa1"><path d="M 6.4375 251 L 370.9375 251 L 370.9375 311.09375 L 6.4375 311.09375 Z M 6.4375 251 " clip-rule="nonzero"></path></clipPath><clipPath id="073a185633"><path d="M 54 67.433594 L 323 67.433594 L 323 237 L 54 237 Z M 54 67.433594 " clip-rule="nonzero"></path></clipPath><clipPath id="c98caab3ba"><path d="M 134.230469 96.636719 L 240.929688 96.636719 L 240.929688 198.183594 L 134.230469 198.183594 Z M 134.230469 96.636719 " clip-rule="nonzero"></path></clipPath><clipPath id="d48e869131"><path d="M 187.5 96.636719 L 200.074219 135.425781 L 240.769531 135.425781 L 207.847656 159.394531 L 220.421875 198.183594 L 187.5 174.210938 L 154.578125 198.183594 L 167.152344 159.394531 L 134.230469 135.425781 L 174.925781 135.425781 Z M 187.5 96.636719 " clip-rule="nonzero"></path></clipPath><clipPath id="f00b8b40f3"><path d="M 0.230469 0.636719 L 106.929688 0.636719 L 106.929688 102.183594 L 0.230469 102.183594 Z M 0.230469 0.636719 " clip-rule="nonzero"></path></clipPath><clipPath id="e8030f6bb7"><path d="M 53.5 0.636719 L 66.074219 39.425781 L 106.769531 39.425781 L 73.847656 63.394531 L 86.421875 102.183594 L 53.5 78.210938 L 20.578125 102.183594 L 33.152344 63.394531 L 0.230469 39.425781 L 40.925781 39.425781 Z M 53.5 0.636719 " clip-rule="nonzero"></path></clipPath><clipPath id="9bec067391"><rect x="0" width="107" y="0" height="103"></rect></clipPath><clipPath id="SvgjsClipPath1256"><rect width="1000" height="1000" x="0" y="0" rx="0" ry="0"></rect></clipPath></defs><rect x="-37.5" width="450" fill="#ffffff" y="-37.499999" height="449.999989" fill-opacity="1"></rect><rect x="-37.5" width="450" fill="#ffffff" y="-37.499999" height="449.999989" fill-opacity="1"></rect><g clip-path="url(#764149caa1)"><path fill="#000000" d="M 241.273438 295.753906 L 136.101562 295.753906 C 135.375 295.753906 134.914062 294.992188 135.246094 294.347656 L 143.339844 278.734375 C 143.507812 278.414062 143.835938 278.214844 144.195312 278.214844 L 233.179688 278.214844 C 233.539062 278.214844 233.867188 278.414062 234.035156 278.734375 L 242.128906 294.347656 C 242.460938 294.992188 242 295.753906 241.273438 295.753906 Z M 368.613281 297.527344 L 325.058594 253.894531 C 323.570312 252.402344 321.554688 251.566406 319.453125 251.566406 L 57.921875 251.566406 C 55.820312 251.566406 53.800781 252.402344 52.3125 253.894531 L 8.761719 297.527344 C 7.273438 299.019531 6.4375 301.039062 6.4375 303.148438 C 6.4375 307.535156 9.988281 311.09375 14.367188 311.09375 L 363.007812 311.09375 C 367.386719 311.09375 370.9375 307.535156 370.9375 303.148438 C 370.9375 301.039062 370.101562 299.019531 368.613281 297.527344 " fill-opacity="1" fill-rule="nonzero"></path></g><g clip-path="url(#073a185633)"><path fill="#000000" d="M 309.703125 67.519531 L 67.671875 67.519531 C 60.671875 67.519531 54.941406 73.257812 54.941406 80.273438 L 54.941406 224.234375 C 54.941406 231.246094 60.671875 236.988281 67.671875 236.988281 L 309.703125 236.988281 C 316.703125 236.988281 322.433594 231.246094 322.433594 224.234375 L 322.433594 80.273438 C 322.433594 73.257812 316.703125 67.519531 309.703125 67.519531 Z M 307.695312 82.28125 L 307.695312 222.222656 L 69.679688 222.222656 L 69.679688 82.28125 L 307.695312 82.28125 " fill-opacity="1" fill-rule="nonzero"></path></g><g clip-path="url(#c98caab3ba)"><g clip-path="url(#d48e869131)"><g transform="matrix(1, 0, 0, 1, 134, 96)"><g clip-path="url(#9bec067391)"><g clip-path="url(#f00b8b40f3)"><g clip-path="url(#e8030f6bb7)"><path fill="#1e47ff" d="M 0.230469 0.636719 L 106.929688 0.636719 L 106.929688 102.183594 L 0.230469 102.183594 Z M 0.230469 0.636719 " fill-opacity="1" fill-rule="nonzero"></path></g></g></g></g></g></g></svg></svg></g></g></svg>