<svg xmlns="http://www.w3.org/2000/svg" xmlns:xlink="http://www.w3.org/1999/xlink" zoomAndPan="magnify" preserveAspectRatio="xMidYMid meet" version="1.2" viewBox="74.86 129.75 224.54 126.88"><defs><clipPath id="9c7450bc5d"><path d="M 132.261719 184.46875 L 241.25 184.46875 L 241.25 202.449219 L 132.261719 202.449219 Z M 132.261719 184.46875 "/></clipPath><clipPath id="8212b2ae92"><path d="M 146 129.726562 L 227 129.726562 L 227 181 L 146 181 Z M 146 129.726562 "/></clipPath><clipPath id="b53cadc201"><path d="M 171.910156 137.457031 L 202.199219 137.457031 L 202.199219 166.285156 L 171.910156 166.285156 Z M 171.910156 137.457031 "/></clipPath><clipPath id="d3c024499d"><path d="M 187.03125 137.457031 L 190.601562 148.46875 L 202.152344 148.46875 L 192.808594 155.277344 L 196.378906 166.285156 L 187.03125 159.480469 L 177.683594 166.285156 L 181.253906 155.277344 L 171.910156 148.46875 L 183.460938 148.46875 Z M 187.03125 137.457031 "/></clipPath></defs><g id="f09ea38358"><g clip-rule="nonzero" clip-path="url(#9c7450bc5d)"><path style=" stroke:none;fill-rule:nonzero;fill:#1e47ff;fill-opacity:1;" d="M 202.480469 197.871094 L 171.03125 197.871094 C 170.816406 197.871094 170.675781 197.644531 170.777344 197.453125 L 173.195312 192.792969 C 173.246094 192.699219 173.34375 192.636719 173.453125 192.636719 L 200.058594 192.636719 C 200.167969 192.636719 200.265625 192.699219 200.316406 192.792969 L 202.734375 197.453125 C 202.835938 197.644531 202.695312 197.871094 202.480469 197.871094 Z M 240.554688 198.402344 L 227.53125 185.378906 C 227.089844 184.933594 226.484375 184.683594 225.855469 184.683594 L 147.65625 184.683594 C 147.027344 184.683594 146.421875 184.933594 145.976562 185.378906 L 132.957031 198.402344 C 132.511719 198.847656 132.261719 199.449219 132.261719 200.078125 C 132.261719 201.390625 133.320312 202.449219 134.632812 202.449219 L 238.878906 202.449219 C 240.191406 202.449219 241.25 201.390625 241.25 200.078125 C 241.25 199.449219 241 198.847656 240.554688 198.402344 "/></g><g clip-rule="nonzero" clip-path="url(#8212b2ae92)"><path style=" stroke:none;fill-rule:nonzero;fill:#1e47ff;fill-opacity:1;" d="M 222.941406 129.753906 L 150.570312 129.753906 C 148.476562 129.753906 146.765625 131.464844 146.765625 133.558594 L 146.765625 176.527344 C 146.765625 178.621094 148.476562 180.332031 150.570312 180.332031 L 222.941406 180.332031 C 225.035156 180.332031 226.746094 178.621094 226.746094 176.527344 L 226.746094 133.558594 C 226.746094 131.464844 225.035156 129.753906 222.941406 129.753906 Z M 222.339844 134.160156 L 222.339844 175.925781 L 151.171875 175.925781 L 151.171875 134.160156 L 222.339844 134.160156 "/></g><g style="fill:#1e47ff;fill-opacity:1;"><g transform="translate(74.638242, 234.421741)"><path style="stroke:none" d="M 0.21875 -18.65625 L 0.21875 -23.3125 L 16.625 -23.3125 L 16.625 -18.65625 L 11.078125 -18.65625 L 11.078125 0 L 5.765625 0 L 5.765625 -18.65625 Z M 0.21875 -18.65625 "/></g></g><g style="fill:#1e47ff;fill-opacity:1;"><g transform="translate(91.484573, 234.421741)"><path style="stroke:none" d="M 15.03125 -23.3125 L 15.03125 -18.65625 L 7.015625 -18.65625 L 7.015625 -14.015625 L 14.703125 -14.015625 L 14.703125 -9.359375 L 7.015625 -9.359375 L 7.015625 -4.65625 L 15.03125 -4.65625 L 15.03125 0 L 1.703125 0 L 1.703125 -23.3125 Z M 15.03125 -23.3125 "/></g></g><g style="fill:#1e47ff;fill-opacity:1;"><g transform="translate(107.878657, 234.421741)"><path style="stroke:none" d="M 23.515625 0 L 16.65625 0 L 11.140625 -7.9375 L 5.625 0 L -0.96875 0 L 7.859375 -12.546875 L 0.515625 -23.3125 L 6.84375 -23.3125 L 11.140625 -16.953125 L 15.4375 -23.3125 L 22.046875 -23.3125 L 14.421875 -12.546875 Z M 23.515625 0 "/></g></g><g style="fill:#1e47ff;fill-opacity:1;"><g transform="translate(130.434652, 234.421741)"><path style="stroke:none" d="M 13.546875 -23.3125 L 22.953125 0 L 17.234375 0 L 15.515625 -4.65625 L 6.640625 -4.65625 L 4.921875 0 L -0.796875 0 L 8.625 -23.3125 Z M 13.703125 -9.328125 L 11.109375 -16.109375 L 11.046875 -16.109375 L 8.453125 -9.328125 Z M 13.703125 -9.328125 "/></g></g><g style="fill:#1e47ff;fill-opacity:1;"><g transform="translate(152.594921, 234.421741)"><path style="stroke:none" d="M 7.015625 -14.46875 L 7.015625 0 L 1.703125 0 L 1.703125 -23.3125 L 7.015625 -23.3125 L 16.28125 -8.84375 L 16.34375 -8.84375 L 16.34375 -23.3125 L 21.65625 -23.3125 L 21.65625 0 L 16.34375 0 L 7.0625 -14.46875 Z M 7.015625 -14.46875 "/></g></g><g style="fill:#1e47ff;fill-opacity:1;"><g transform="translate(175.942354, 234.421741)"><path style="stroke:none" d=""/></g></g><g style="fill:#1e47ff;fill-opacity:1;"><g transform="translate(183.658876, 234.421741)"><path style="stroke:none" d="M 1.703125 -23.3125 L 8.453125 -23.3125 C 11.691406 -23.3125 14.457031 -22.203125 16.75 -19.984375 C 19.050781 -17.773438 20.203125 -15.003906 20.203125 -11.671875 C 20.203125 -8.316406 19.054688 -5.53125 16.765625 -3.3125 C 14.484375 -1.101562 11.710938 0 8.453125 0 L 1.703125 0 Z M 7.015625 -4.75 L 7.828125 -4.75 C 9.765625 -4.75 11.347656 -5.398438 12.578125 -6.703125 C 13.816406 -8.015625 14.445312 -9.660156 14.46875 -11.640625 C 14.46875 -13.617188 13.847656 -15.269531 12.609375 -16.59375 C 11.378906 -17.914062 9.785156 -18.578125 7.828125 -18.578125 L 7.015625 -18.578125 Z M 7.015625 -4.75 "/></g></g><g style="fill:#1e47ff;fill-opacity:1;"><g transform="translate(204.518925, 234.421741)"><path style="stroke:none" d="M 7.015625 -23.3125 L 7.015625 0 L 1.703125 0 L 1.703125 -23.3125 Z M 7.015625 -23.3125 "/></g></g><g style="fill:#1e47ff;fill-opacity:1;"><g transform="translate(213.224742, 234.421741)"><path style="stroke:none" d="M 22.78125 -13.0625 L 22.78125 -8 C 22.175781 -5.226562 20.851562 -3.128906 18.8125 -1.703125 C 16.78125 -0.285156 14.515625 0.421875 12.015625 0.421875 C 8.867188 0.421875 6.1875 -0.753906 3.96875 -3.109375 C 1.757812 -5.460938 0.65625 -8.304688 0.65625 -11.640625 C 0.65625 -15.035156 1.738281 -17.898438 3.90625 -20.234375 C 6.070312 -22.578125 8.773438 -23.75 12.015625 -23.75 C 15.796875 -23.75 18.789062 -22.414062 21 -19.75 L 17.53125 -15.9375 C 16.28125 -17.9375 14.546875 -18.9375 12.328125 -18.9375 C 10.679688 -18.9375 9.28125 -18.222656 8.125 -16.796875 C 6.96875 -15.378906 6.390625 -13.660156 6.390625 -11.640625 C 6.390625 -9.660156 6.96875 -7.96875 8.125 -6.5625 C 9.28125 -5.164062 10.679688 -4.46875 12.328125 -4.46875 C 13.679688 -4.46875 14.863281 -4.875 15.875 -5.6875 C 16.882812 -6.507812 17.390625 -7.597656 17.390625 -8.953125 L 12.015625 -8.953125 L 12.015625 -13.0625 Z M 22.78125 -13.0625 "/></g></g><g style="fill:#1e47ff;fill-opacity:1;"><g transform="translate(236.656965, 234.421741)"><path style="stroke:none" d="M 7.015625 -23.3125 L 7.015625 0 L 1.703125 0 L 1.703125 -23.3125 Z M 7.015625 -23.3125 "/></g></g><g style="fill:#1e47ff;fill-opacity:1;"><g transform="translate(245.362783, 234.421741)"><path style="stroke:none" d="M 0.21875 -18.65625 L 0.21875 -23.3125 L 16.625 -23.3125 L 16.625 -18.65625 L 11.078125 -18.65625 L 11.078125 0 L 5.765625 0 L 5.765625 -18.65625 Z M 0.21875 -18.65625 "/></g></g><g style="fill:#1e47ff;fill-opacity:1;"><g transform="translate(262.209114, 234.421741)"><path style="stroke:none" d="M 13.546875 -23.3125 L 22.953125 0 L 17.234375 0 L 15.515625 -4.65625 L 6.640625 -4.65625 L 4.921875 0 L -0.796875 0 L 8.625 -23.3125 Z M 13.703125 -9.328125 L 11.109375 -16.109375 L 11.046875 -16.109375 L 8.453125 -9.328125 Z M 13.703125 -9.328125 "/></g></g><g style="fill:#1e47ff;fill-opacity:1;"><g transform="translate(284.369384, 234.421741)"><path style="stroke:none" d="M 7.015625 -23.3125 L 7.015625 -4.65625 L 15.03125 -4.65625 L 15.03125 0 L 1.703125 0 L 1.703125 -23.3125 Z M 7.015625 -23.3125 "/></g></g><g style="fill:#ffffff;fill-opacity:1;"><g transform="translate(145.697793, 256.39573)"><path style="stroke:none" d="M 0.953125 -13.203125 L 4.78125 -13.203125 C 6.613281 -13.203125 8.179688 -12.570312 9.484375 -11.3125 C 10.785156 -10.0625 11.4375 -8.492188 11.4375 -6.609375 C 11.4375 -4.710938 10.785156 -3.132812 9.484375 -1.875 C 8.191406 -0.625 6.625 0 4.78125 0 L 0.953125 0 Z M 3.96875 -2.6875 L 4.4375 -2.6875 C 5.53125 -2.6875 6.425781 -3.054688 7.125 -3.796875 C 7.820312 -4.535156 8.175781 -5.46875 8.1875 -6.59375 C 8.1875 -7.707031 7.835938 -8.640625 7.140625 -9.390625 C 6.441406 -10.140625 5.539062 -10.515625 4.4375 -10.515625 L 3.96875 -10.515625 Z M 3.96875 -2.6875 "/></g></g><g style="fill:#ffffff;fill-opacity:1;"><g transform="translate(159.102944, 256.39573)"><path style="stroke:none" d="M 8.515625 -13.203125 L 8.515625 -10.5625 L 3.96875 -10.5625 L 3.96875 -7.9375 L 8.3125 -7.9375 L 8.3125 -5.296875 L 3.96875 -5.296875 L 3.96875 -2.640625 L 8.515625 -2.640625 L 8.515625 0 L 0.953125 0 L 0.953125 -13.203125 Z M 8.515625 -13.203125 "/></g></g><g style="fill:#ffffff;fill-opacity:1;"><g transform="translate(169.980701, 256.39573)"><path style="stroke:none" d="M 5.828125 -13.4375 C 6.535156 -13.4375 7.226562 -13.332031 7.90625 -13.125 C 8.59375 -12.914062 9.101562 -12.710938 9.4375 -12.515625 L 9.921875 -12.1875 L 8.703125 -9.796875 C 8.609375 -9.859375 8.472656 -9.9375 8.296875 -10.03125 C 8.128906 -10.132812 7.8125 -10.269531 7.34375 -10.4375 C 6.875 -10.613281 6.4375 -10.703125 6.03125 -10.703125 C 5.53125 -10.703125 5.144531 -10.59375 4.875 -10.375 C 4.601562 -10.164062 4.46875 -9.878906 4.46875 -9.515625 C 4.46875 -9.335938 4.53125 -9.171875 4.65625 -9.015625 C 4.78125 -8.859375 5 -8.691406 5.3125 -8.515625 C 5.625 -8.335938 5.894531 -8.195312 6.125 -8.09375 C 6.363281 -7.988281 6.726562 -7.828125 7.21875 -7.609375 C 8.070312 -7.253906 8.796875 -6.765625 9.390625 -6.140625 C 9.992188 -5.515625 10.296875 -4.804688 10.296875 -4.015625 C 10.296875 -3.253906 10.160156 -2.59375 9.890625 -2.03125 C 9.617188 -1.46875 9.242188 -1.023438 8.765625 -0.703125 C 8.296875 -0.378906 7.773438 -0.144531 7.203125 0 C 6.628906 0.15625 6.003906 0.234375 5.328125 0.234375 C 4.753906 0.234375 4.1875 0.175781 3.625 0.0625 C 3.070312 -0.0507812 2.609375 -0.195312 2.234375 -0.375 C 1.867188 -0.550781 1.535156 -0.722656 1.234375 -0.890625 C 0.929688 -1.066406 0.710938 -1.210938 0.578125 -1.328125 L 0.375 -1.5 L 1.875 -4.03125 C 2 -3.925781 2.171875 -3.789062 2.390625 -3.625 C 2.617188 -3.457031 3.019531 -3.234375 3.59375 -2.953125 C 4.164062 -2.679688 4.671875 -2.546875 5.109375 -2.546875 C 6.378906 -2.546875 7.015625 -2.976562 7.015625 -3.84375 C 7.015625 -4.019531 6.96875 -4.1875 6.875 -4.34375 C 6.78125 -4.5 6.617188 -4.65625 6.390625 -4.8125 C 6.160156 -4.96875 5.957031 -5.085938 5.78125 -5.171875 C 5.601562 -5.265625 5.3125 -5.40625 4.90625 -5.59375 C 4.507812 -5.78125 4.21875 -5.921875 4.03125 -6.015625 C 3.226562 -6.410156 2.609375 -6.90625 2.171875 -7.5 C 1.734375 -8.09375 1.515625 -8.726562 1.515625 -9.40625 C 1.515625 -10.59375 1.953125 -11.5625 2.828125 -12.3125 C 3.703125 -13.0625 4.703125 -13.4375 5.828125 -13.4375 Z M 5.828125 -13.4375 "/></g></g><g style="fill:#ffffff;fill-opacity:1;"><g transform="translate(182.330111, 256.39573)"><path style="stroke:none" d="M 3.96875 -13.203125 L 3.96875 0 L 0.953125 0 L 0.953125 -13.203125 Z M 3.96875 -13.203125 "/></g></g><g style="fill:#ffffff;fill-opacity:1;"><g transform="translate(188.856916, 256.39573)"><path style="stroke:none" d="M 12.890625 -7.390625 L 12.890625 -4.53125 C 12.554688 -2.957031 11.8125 -1.769531 10.65625 -0.96875 C 9.5 -0.164062 8.210938 0.234375 6.796875 0.234375 C 5.015625 0.234375 3.5 -0.429688 2.25 -1.765625 C 1 -3.097656 0.375 -4.707031 0.375 -6.59375 C 0.375 -8.507812 0.984375 -10.128906 2.203125 -11.453125 C 3.429688 -12.773438 4.960938 -13.4375 6.796875 -13.4375 C 8.941406 -13.4375 10.640625 -12.6875 11.890625 -11.1875 L 9.921875 -9.03125 C 9.210938 -10.15625 8.226562 -10.71875 6.96875 -10.71875 C 6.039062 -10.71875 5.25 -10.3125 4.59375 -9.5 C 3.9375 -8.695312 3.609375 -7.726562 3.609375 -6.59375 C 3.609375 -5.46875 3.9375 -4.507812 4.59375 -3.71875 C 5.25 -2.925781 6.039062 -2.53125 6.96875 -2.53125 C 7.738281 -2.53125 8.410156 -2.757812 8.984375 -3.21875 C 9.554688 -3.6875 9.84375 -4.304688 9.84375 -5.078125 L 6.796875 -5.078125 L 6.796875 -7.390625 Z M 12.890625 -7.390625 "/></g></g><g style="fill:#ffffff;fill-opacity:1;"><g transform="translate(203.717721, 256.39573)"><path style="stroke:none" d="M 3.96875 -8.1875 L 3.96875 0 L 0.953125 0 L 0.953125 -13.203125 L 3.96875 -13.203125 L 9.21875 -5.015625 L 9.25 -5.015625 L 9.25 -13.203125 L 12.25 -13.203125 L 12.25 0 L 9.25 0 L 4 -8.1875 Z M 3.96875 -8.1875 "/></g></g><g style="fill:#ffffff;fill-opacity:1;"><g transform="translate(218.530529, 256.39573)"><path style="stroke:none" d="M 5.828125 -13.4375 C 6.535156 -13.4375 7.226562 -13.332031 7.90625 -13.125 C 8.59375 -12.914062 9.101562 -12.710938 9.4375 -12.515625 L 9.921875 -12.1875 L 8.703125 -9.796875 C 8.609375 -9.859375 8.472656 -9.9375 8.296875 -10.03125 C 8.128906 -10.132812 7.8125 -10.269531 7.34375 -10.4375 C 6.875 -10.613281 6.4375 -10.703125 6.03125 -10.703125 C 5.53125 -10.703125 5.144531 -10.59375 4.875 -10.375 C 4.601562 -10.164062 4.46875 -9.878906 4.46875 -9.515625 C 4.46875 -9.335938 4.53125 -9.171875 4.65625 -9.015625 C 4.78125 -8.859375 5 -8.691406 5.3125 -8.515625 C 5.625 -8.335938 5.894531 -8.195312 6.125 -8.09375 C 6.363281 -7.988281 6.726562 -7.828125 7.21875 -7.609375 C 8.070312 -7.253906 8.796875 -6.765625 9.390625 -6.140625 C 9.992188 -5.515625 10.296875 -4.804688 10.296875 -4.015625 C 10.296875 -3.253906 10.160156 -2.59375 9.890625 -2.03125 C 9.617188 -1.46875 9.242188 -1.023438 8.765625 -0.703125 C 8.296875 -0.378906 7.773438 -0.144531 7.203125 0 C 6.628906 0.15625 6.003906 0.234375 5.328125 0.234375 C 4.753906 0.234375 4.1875 0.175781 3.625 0.0625 C 3.070312 -0.0507812 2.609375 -0.195312 2.234375 -0.375 C 1.867188 -0.550781 1.535156 -0.722656 1.234375 -0.890625 C 0.929688 -1.066406 0.710938 -1.210938 0.578125 -1.328125 L 0.375 -1.5 L 1.875 -4.03125 C 2 -3.925781 2.171875 -3.789062 2.390625 -3.625 C 2.617188 -3.457031 3.019531 -3.234375 3.59375 -2.953125 C 4.164062 -2.679688 4.671875 -2.546875 5.109375 -2.546875 C 6.378906 -2.546875 7.015625 -2.976562 7.015625 -3.84375 C 7.015625 -4.019531 6.96875 -4.1875 6.875 -4.34375 C 6.78125 -4.5 6.617188 -4.65625 6.390625 -4.8125 C 6.160156 -4.96875 5.957031 -5.085938 5.78125 -5.171875 C 5.601562 -5.265625 5.3125 -5.40625 4.90625 -5.59375 C 4.507812 -5.78125 4.21875 -5.921875 4.03125 -6.015625 C 3.226562 -6.410156 2.609375 -6.90625 2.171875 -7.5 C 1.734375 -8.09375 1.515625 -8.726562 1.515625 -9.40625 C 1.515625 -10.59375 1.953125 -11.5625 2.828125 -12.3125 C 3.703125 -13.0625 4.703125 -13.4375 5.828125 -13.4375 Z M 5.828125 -13.4375 "/></g></g><g clip-rule="nonzero" clip-path="url(#b53cadc201)"><g clip-rule="nonzero" clip-path="url(#d3c024499d)"><path style=" stroke:none;fill-rule:nonzero;fill:#f0f1f5;fill-opacity:1;" d="M 171.910156 137.457031 L 202.199219 137.457031 L 202.199219 166.285156 L 171.910156 166.285156 Z M 171.910156 137.457031 "/></g></g></g></svg>