<svg xmlns="http://www.w3.org/2000/svg" xmlns:xlink="http://www.w3.org/1999/xlink" width="500" zoomAndPan="magnify" viewBox="0 0 375 374.999991" height="500" preserveAspectRatio="xMidYMid meet" version="1.2"><defs><clipPath id="14c953c450"><path d="M 132.261719 184.46875 L 241.761719 184.46875 L 241.761719 202.449219 L 132.261719 202.449219 Z M 132.261719 184.46875 "/></clipPath><clipPath id="ce56b321b1"><path d="M 146 129.726562 L 228 129.726562 L 228 181 L 146 181 Z M 146 129.726562 "/></clipPath><clipPath id="96509e3507"><path d="M 171.910156 137.457031 L 202.199219 137.457031 L 202.199219 166.285156 L 171.910156 166.285156 Z M 171.910156 137.457031 "/></clipPath><clipPath id="996d40fe5b"><path d="M 187.03125 137.457031 L 190.601562 148.46875 L 202.152344 148.46875 L 192.808594 155.277344 L 196.378906 166.285156 L 187.03125 159.480469 L 177.683594 166.285156 L 181.253906 155.277344 L 171.910156 148.46875 L 183.460938 148.46875 Z M 187.03125 137.457031 "/></clipPath></defs><g id="8643b3bf47"><g clip-rule="nonzero" clip-path="url(#14c953c450)"><path style=" stroke:none;fill-rule:nonzero;fill:#000000;fill-opacity:1;" d="M 202.808594 197.871094 L 171.210938 197.871094 C 170.996094 197.871094 170.855469 197.644531 170.957031 197.453125 L 173.386719 192.792969 C 173.4375 192.699219 173.535156 192.636719 173.644531 192.636719 L 200.375 192.636719 C 200.484375 192.636719 200.582031 192.699219 200.632812 192.792969 L 203.066406 197.453125 C 203.164062 197.644531 203.027344 197.871094 202.808594 197.871094 Z M 241.0625 198.402344 L 227.976562 185.378906 C 227.53125 184.933594 226.925781 184.683594 226.292969 184.683594 L 147.726562 184.683594 C 147.09375 184.683594 146.488281 184.933594 146.042969 185.378906 L 132.957031 198.402344 C 132.511719 198.847656 132.261719 199.449219 132.261719 200.078125 C 132.261719 201.390625 133.328125 202.449219 134.644531 202.449219 L 239.378906 202.449219 C 240.695312 202.449219 241.761719 201.390625 241.761719 200.078125 C 241.761719 199.449219 241.507812 198.847656 241.0625 198.402344 "/></g><g clip-rule="nonzero" clip-path="url(#ce56b321b1)"><path style=" stroke:none;fill-rule:nonzero;fill:#000000;fill-opacity:1;" d="M 223.363281 129.753906 L 150.65625 129.753906 C 148.554688 129.753906 146.832031 131.464844 146.832031 133.558594 L 146.832031 176.527344 C 146.832031 178.621094 148.554688 180.332031 150.65625 180.332031 L 223.363281 180.332031 C 225.46875 180.332031 227.1875 178.621094 227.1875 176.527344 L 227.1875 133.558594 C 227.1875 131.464844 225.46875 129.753906 223.363281 129.753906 Z M 222.761719 134.160156 L 222.761719 175.925781 L 151.257812 175.925781 L 151.257812 134.160156 L 222.761719 134.160156 "/></g><g clip-rule="nonzero" clip-path="url(#96509e3507)"><g clip-rule="nonzero" clip-path="url(#996d40fe5b)"><path style=" stroke:none;fill-rule:nonzero;fill:#1e47ff;fill-opacity:1;" d="M 171.910156 137.457031 L 202.199219 137.457031 L 202.199219 166.285156 L 171.910156 166.285156 Z M 171.910156 137.457031 "/></g></g><g style="fill:#000000;fill-opacity:1;"><g transform="translate(74.544492, 234.467562)"><path style="stroke:none" d="M 0.21875 -18.671875 L 0.21875 -23.34375 L 16.640625 -23.34375 L 16.640625 -18.671875 L 11.09375 -18.671875 L 11.09375 0 L 5.765625 0 L 5.765625 -18.671875 Z M 0.21875 -18.671875 "/></g></g><g style="fill:#000000;fill-opacity:1;"><g transform="translate(91.404785, 234.467562)"><path style="stroke:none" d="M 15.046875 -23.34375 L 15.046875 -18.671875 L 7.015625 -18.671875 L 7.015625 -14.03125 L 14.71875 -14.03125 L 14.71875 -9.359375 L 7.015625 -9.359375 L 7.015625 -4.671875 L 15.046875 -4.671875 L 15.046875 0 L 1.703125 0 L 1.703125 -23.34375 Z M 15.046875 -23.34375 "/></g></g><g style="fill:#000000;fill-opacity:1;"><g transform="translate(107.812453, 234.467562)"><path style="stroke:none" d="M 23.546875 0 L 16.671875 0 L 11.15625 -7.953125 L 5.625 0 L -0.96875 0 L 7.859375 -12.5625 L 0.515625 -23.34375 L 6.84375 -23.34375 L 11.15625 -16.984375 L 15.453125 -23.34375 L 22.078125 -23.34375 L 14.4375 -12.5625 Z M 23.546875 0 "/></g></g><g style="fill:#000000;fill-opacity:1;"><g transform="translate(130.387135, 234.467562)"><path style="stroke:none" d="M 13.546875 -23.34375 L 22.984375 0 L 17.265625 0 L 15.53125 -4.671875 L 6.65625 -4.671875 L 4.921875 0 L -0.796875 0 L 8.625 -23.34375 Z M 13.71875 -9.34375 L 11.125 -16.125 L 11.0625 -16.125 L 8.453125 -9.34375 Z M 13.71875 -9.34375 "/></g></g><g style="fill:#000000;fill-opacity:1;"><g transform="translate(152.565772, 234.467562)"><path style="stroke:none" d="M 7.015625 -14.484375 L 7.015625 0 L 1.703125 0 L 1.703125 -23.34375 L 7.015625 -23.34375 L 16.296875 -8.859375 L 16.359375 -8.859375 L 16.359375 -23.34375 L 21.671875 -23.34375 L 21.671875 0 L 16.359375 0 L 7.078125 -14.484375 Z M 7.015625 -14.484375 "/></g></g><g style="fill:#000000;fill-opacity:1;"><g transform="translate(175.932547, 234.467562)"><path style="stroke:none" d=""/></g></g><g style="fill:#000000;fill-opacity:1;"><g transform="translate(183.655466, 234.467562)"><path style="stroke:none" d="M 1.703125 -23.34375 L 8.453125 -23.34375 C 11.703125 -23.34375 14.476562 -22.234375 16.78125 -20.015625 C 19.082031 -17.796875 20.234375 -15.019531 20.234375 -11.6875 C 20.234375 -8.332031 19.085938 -5.546875 16.796875 -3.328125 C 14.503906 -1.109375 11.722656 0 8.453125 0 L 1.703125 0 Z M 7.015625 -4.75 L 7.84375 -4.75 C 9.78125 -4.75 11.363281 -5.40625 12.59375 -6.71875 C 13.832031 -8.03125 14.460938 -9.675781 14.484375 -11.65625 C 14.484375 -13.632812 13.863281 -15.285156 12.625 -16.609375 C 11.394531 -17.929688 9.800781 -18.59375 7.84375 -18.59375 L 7.015625 -18.59375 Z M 7.015625 -4.75 "/></g></g><g style="fill:#000000;fill-opacity:1;"><g transform="translate(204.532806, 234.467562)"><path style="stroke:none" d="M 7.015625 -23.34375 L 7.015625 0 L 1.703125 0 L 1.703125 -23.34375 Z M 7.015625 -23.34375 "/></g></g><g style="fill:#000000;fill-opacity:1;"><g transform="translate(213.245845, 234.467562)"><path style="stroke:none" d="M 22.8125 -13.078125 L 22.8125 -8.015625 C 22.207031 -5.234375 20.882812 -3.128906 18.84375 -1.703125 C 16.8125 -0.285156 14.539062 0.421875 12.03125 0.421875 C 8.875 0.421875 6.1875 -0.753906 3.96875 -3.109375 C 1.757812 -5.472656 0.65625 -8.320312 0.65625 -11.65625 C 0.65625 -15.050781 1.738281 -17.914062 3.90625 -20.25 C 6.070312 -22.59375 8.78125 -23.765625 12.03125 -23.765625 C 15.820312 -23.765625 18.820312 -22.4375 21.03125 -19.78125 L 17.546875 -15.953125 C 16.296875 -17.953125 14.5625 -18.953125 12.34375 -18.953125 C 10.695312 -18.953125 9.289062 -18.238281 8.125 -16.8125 C 6.96875 -15.394531 6.390625 -13.675781 6.390625 -11.65625 C 6.390625 -9.675781 6.96875 -7.984375 8.125 -6.578125 C 9.289062 -5.171875 10.695312 -4.46875 12.34375 -4.46875 C 13.695312 -4.46875 14.878906 -4.878906 15.890625 -5.703125 C 16.898438 -6.523438 17.40625 -7.613281 17.40625 -8.96875 L 12.03125 -8.96875 L 12.03125 -13.078125 Z M 22.8125 -13.078125 "/></g></g><g style="fill:#000000;fill-opacity:1;"><g transform="translate(236.697488, 234.467562)"><path style="stroke:none" d="M 7.015625 -23.34375 L 7.015625 0 L 1.703125 0 L 1.703125 -23.34375 Z M 7.015625 -23.34375 "/></g></g><g style="fill:#000000;fill-opacity:1;"><g transform="translate(245.410527, 234.467562)"><path style="stroke:none" d="M 0.21875 -18.671875 L 0.21875 -23.34375 L 16.640625 -23.34375 L 16.640625 -18.671875 L 11.09375 -18.671875 L 11.09375 0 L 5.765625 0 L 5.765625 -18.671875 Z M 0.21875 -18.671875 "/></g></g><g style="fill:#000000;fill-opacity:1;"><g transform="translate(262.27082, 234.467562)"><path style="stroke:none" d="M 13.546875 -23.34375 L 22.984375 0 L 17.265625 0 L 15.53125 -4.671875 L 6.65625 -4.671875 L 4.921875 0 L -0.796875 0 L 8.625 -23.34375 Z M 13.71875 -9.34375 L 11.125 -16.125 L 11.0625 -16.125 L 8.453125 -9.34375 Z M 13.71875 -9.34375 "/></g></g><g style="fill:#000000;fill-opacity:1;"><g transform="translate(284.449446, 234.467562)"><path style="stroke:none" d="M 7.015625 -23.34375 L 7.015625 -4.671875 L 15.046875 -4.671875 L 15.046875 0 L 1.703125 0 L 1.703125 -23.34375 Z M 7.015625 -23.34375 "/></g></g><g style="fill:#1e47ff;fill-opacity:1;"><g transform="translate(145.229222, 257.183815)"><path style="stroke:none" d="M 0.953125 -13.203125 L 4.78125 -13.203125 C 6.613281 -13.203125 8.179688 -12.570312 9.484375 -11.3125 C 10.785156 -10.0625 11.4375 -8.492188 11.4375 -6.609375 C 11.4375 -4.710938 10.785156 -3.132812 9.484375 -1.875 C 8.191406 -0.625 6.625 0 4.78125 0 L 0.953125 0 Z M 3.96875 -2.6875 L 4.4375 -2.6875 C 5.53125 -2.6875 6.425781 -3.054688 7.125 -3.796875 C 7.820312 -4.535156 8.175781 -5.46875 8.1875 -6.59375 C 8.1875 -7.707031 7.835938 -8.640625 7.140625 -9.390625 C 6.441406 -10.140625 5.539062 -10.515625 4.4375 -10.515625 L 3.96875 -10.515625 Z M 3.96875 -2.6875 "/></g></g><g style="fill:#1e47ff;fill-opacity:1;"><g transform="translate(158.634372, 257.183815)"><path style="stroke:none" d="M 8.515625 -13.203125 L 8.515625 -10.5625 L 3.96875 -10.5625 L 3.96875 -7.9375 L 8.3125 -7.9375 L 8.3125 -5.296875 L 3.96875 -5.296875 L 3.96875 -2.640625 L 8.515625 -2.640625 L 8.515625 0 L 0.953125 0 L 0.953125 -13.203125 Z M 8.515625 -13.203125 "/></g></g><g style="fill:#1e47ff;fill-opacity:1;"><g transform="translate(169.51213, 257.183815)"><path style="stroke:none" d="M 5.828125 -13.4375 C 6.535156 -13.4375 7.226562 -13.332031 7.90625 -13.125 C 8.59375 -12.914062 9.101562 -12.710938 9.4375 -12.515625 L 9.921875 -12.1875 L 8.703125 -9.796875 C 8.609375 -9.859375 8.472656 -9.9375 8.296875 -10.03125 C 8.128906 -10.132812 7.8125 -10.269531 7.34375 -10.4375 C 6.875 -10.613281 6.4375 -10.703125 6.03125 -10.703125 C 5.53125 -10.703125 5.144531 -10.59375 4.875 -10.375 C 4.601562 -10.164062 4.46875 -9.878906 4.46875 -9.515625 C 4.46875 -9.335938 4.53125 -9.171875 4.65625 -9.015625 C 4.78125 -8.859375 5 -8.691406 5.3125 -8.515625 C 5.625 -8.335938 5.894531 -8.195312 6.125 -8.09375 C 6.363281 -7.988281 6.726562 -7.828125 7.21875 -7.609375 C 8.070312 -7.253906 8.796875 -6.765625 9.390625 -6.140625 C 9.992188 -5.515625 10.296875 -4.804688 10.296875 -4.015625 C 10.296875 -3.253906 10.160156 -2.59375 9.890625 -2.03125 C 9.617188 -1.46875 9.242188 -1.023438 8.765625 -0.703125 C 8.296875 -0.378906 7.773438 -0.144531 7.203125 0 C 6.628906 0.15625 6.003906 0.234375 5.328125 0.234375 C 4.753906 0.234375 4.1875 0.175781 3.625 0.0625 C 3.070312 -0.0507812 2.609375 -0.195312 2.234375 -0.375 C 1.867188 -0.550781 1.535156 -0.722656 1.234375 -0.890625 C 0.929688 -1.066406 0.710938 -1.210938 0.578125 -1.328125 L 0.375 -1.5 L 1.875 -4.03125 C 2 -3.925781 2.171875 -3.789062 2.390625 -3.625 C 2.617188 -3.457031 3.019531 -3.234375 3.59375 -2.953125 C 4.164062 -2.679688 4.671875 -2.546875 5.109375 -2.546875 C 6.378906 -2.546875 7.015625 -2.976562 7.015625 -3.84375 C 7.015625 -4.019531 6.96875 -4.1875 6.875 -4.34375 C 6.78125 -4.5 6.617188 -4.65625 6.390625 -4.8125 C 6.160156 -4.96875 5.957031 -5.085938 5.78125 -5.171875 C 5.601562 -5.265625 5.3125 -5.40625 4.90625 -5.59375 C 4.507812 -5.78125 4.21875 -5.921875 4.03125 -6.015625 C 3.226562 -6.410156 2.609375 -6.90625 2.171875 -7.5 C 1.734375 -8.09375 1.515625 -8.726562 1.515625 -9.40625 C 1.515625 -10.59375 1.953125 -11.5625 2.828125 -12.3125 C 3.703125 -13.0625 4.703125 -13.4375 5.828125 -13.4375 Z M 5.828125 -13.4375 "/></g></g><g style="fill:#1e47ff;fill-opacity:1;"><g transform="translate(181.86154, 257.183815)"><path style="stroke:none" d="M 3.96875 -13.203125 L 3.96875 0 L 0.953125 0 L 0.953125 -13.203125 Z M 3.96875 -13.203125 "/></g></g><g style="fill:#1e47ff;fill-opacity:1;"><g transform="translate(188.388345, 257.183815)"><path style="stroke:none" d="M 12.890625 -7.390625 L 12.890625 -4.53125 C 12.554688 -2.957031 11.8125 -1.769531 10.65625 -0.96875 C 9.5 -0.164062 8.210938 0.234375 6.796875 0.234375 C 5.015625 0.234375 3.5 -0.429688 2.25 -1.765625 C 1 -3.097656 0.375 -4.707031 0.375 -6.59375 C 0.375 -8.507812 0.984375 -10.128906 2.203125 -11.453125 C 3.429688 -12.773438 4.960938 -13.4375 6.796875 -13.4375 C 8.941406 -13.4375 10.640625 -12.6875 11.890625 -11.1875 L 9.921875 -9.03125 C 9.210938 -10.15625 8.226562 -10.71875 6.96875 -10.71875 C 6.039062 -10.71875 5.25 -10.3125 4.59375 -9.5 C 3.9375 -8.695312 3.609375 -7.726562 3.609375 -6.59375 C 3.609375 -5.46875 3.9375 -4.507812 4.59375 -3.71875 C 5.25 -2.925781 6.039062 -2.53125 6.96875 -2.53125 C 7.738281 -2.53125 8.410156 -2.757812 8.984375 -3.21875 C 9.554688 -3.6875 9.84375 -4.304688 9.84375 -5.078125 L 6.796875 -5.078125 L 6.796875 -7.390625 Z M 12.890625 -7.390625 "/></g></g><g style="fill:#1e47ff;fill-opacity:1;"><g transform="translate(203.24915, 257.183815)"><path style="stroke:none" d="M 3.96875 -8.1875 L 3.96875 0 L 0.953125 0 L 0.953125 -13.203125 L 3.96875 -13.203125 L 9.21875 -5.015625 L 9.25 -5.015625 L 9.25 -13.203125 L 12.25 -13.203125 L 12.25 0 L 9.25 0 L 4 -8.1875 Z M 3.96875 -8.1875 "/></g></g><g style="fill:#1e47ff;fill-opacity:1;"><g transform="translate(218.061958, 257.183815)"><path style="stroke:none" d="M 5.828125 -13.4375 C 6.535156 -13.4375 7.226562 -13.332031 7.90625 -13.125 C 8.59375 -12.914062 9.101562 -12.710938 9.4375 -12.515625 L 9.921875 -12.1875 L 8.703125 -9.796875 C 8.609375 -9.859375 8.472656 -9.9375 8.296875 -10.03125 C 8.128906 -10.132812 7.8125 -10.269531 7.34375 -10.4375 C 6.875 -10.613281 6.4375 -10.703125 6.03125 -10.703125 C 5.53125 -10.703125 5.144531 -10.59375 4.875 -10.375 C 4.601562 -10.164062 4.46875 -9.878906 4.46875 -9.515625 C 4.46875 -9.335938 4.53125 -9.171875 4.65625 -9.015625 C 4.78125 -8.859375 5 -8.691406 5.3125 -8.515625 C 5.625 -8.335938 5.894531 -8.195312 6.125 -8.09375 C 6.363281 -7.988281 6.726562 -7.828125 7.21875 -7.609375 C 8.070312 -7.253906 8.796875 -6.765625 9.390625 -6.140625 C 9.992188 -5.515625 10.296875 -4.804688 10.296875 -4.015625 C 10.296875 -3.253906 10.160156 -2.59375 9.890625 -2.03125 C 9.617188 -1.46875 9.242188 -1.023438 8.765625 -0.703125 C 8.296875 -0.378906 7.773438 -0.144531 7.203125 0 C 6.628906 0.15625 6.003906 0.234375 5.328125 0.234375 C 4.753906 0.234375 4.1875 0.175781 3.625 0.0625 C 3.070312 -0.0507812 2.609375 -0.195312 2.234375 -0.375 C 1.867188 -0.550781 1.535156 -0.722656 1.234375 -0.890625 C 0.929688 -1.066406 0.710938 -1.210938 0.578125 -1.328125 L 0.375 -1.5 L 1.875 -4.03125 C 2 -3.925781 2.171875 -3.789062 2.390625 -3.625 C 2.617188 -3.457031 3.019531 -3.234375 3.59375 -2.953125 C 4.164062 -2.679688 4.671875 -2.546875 5.109375 -2.546875 C 6.378906 -2.546875 7.015625 -2.976562 7.015625 -3.84375 C 7.015625 -4.019531 6.96875 -4.1875 6.875 -4.34375 C 6.78125 -4.5 6.617188 -4.65625 6.390625 -4.8125 C 6.160156 -4.96875 5.957031 -5.085938 5.78125 -5.171875 C 5.601562 -5.265625 5.3125 -5.40625 4.90625 -5.59375 C 4.507812 -5.78125 4.21875 -5.921875 4.03125 -6.015625 C 3.226562 -6.410156 2.609375 -6.90625 2.171875 -7.5 C 1.734375 -8.09375 1.515625 -8.726562 1.515625 -9.40625 C 1.515625 -10.59375 1.953125 -11.5625 2.828125 -12.3125 C 3.703125 -13.0625 4.703125 -13.4375 5.828125 -13.4375 Z M 5.828125 -13.4375 "/></g></g></g></svg>